<?xml version="1.0" encoding="utf-8"?>
<!-- Generator: Adobe Illustrator 22.1.0, SVG Export Plug-In . SVG Version: 6.00 Build 0)  -->
<svg version="1.1" id="Layer_1" xmlns="http://www.w3.org/2000/svg" xmlns:xlink="http://www.w3.org/1999/xlink" x="0px" y="0px"
	 viewBox="0 0 400 200" style="enable-background:new 0 0 400 200;" xml:space="preserve">
<style type="text/css">
	.st0{fill:#46A147;}
	.st1{fill:#4A4249;}
</style>
<g>
	<path class="st0" d="M160.8,74.2l-1.3-3.4c0-0.1-0.1-0.1-0.1-0.2l-0.1-0.4l0,0c-0.4-0.8-1.1-1.3-2.1-1.3h-10.7
		c-0.7,0-1.2,0.2-1.6,0.6s-0.4,1-0.2,1.6l14.1,53.4c2.4-9.1,5.5-18.8,9.5-28.9L160.8,74.2z"/>
	<path class="st0" d="M170.8,103.5L170.8,103.5c-4.1,11.1-7.1,21.5-9.1,31.3l2.8,10c0.8,2.1,2.1,3.2,3.6,3.2h5.7
		c0.7,0,1.3-0.1,1.7-0.4c0.1-0.1,0.3-0.1,0.4-0.2c0.1,0,0.1-0.1,0.1-0.1c0.5-0.4,1-1.3,1.5-2.5l2.4-11.7
		C194.7,69,223.6,13.7,240.9,0.7C204.6,12.3,170.8,103.5,170.8,103.5z"/>
</g>
<g>
	<path class="st1" d="M16.4,68.7h17c16.9,0,20.9,8.7,20.9,23.4v30.5c0,12.1-2,25.4-20.9,25.4h-17V68.7z M28.7,137.5h3.9
		c8,0,9.3-5.1,9.3-13.3V91.1c0-7.2-1.2-11.9-9.3-11.9h-3.9C28.7,79.2,28.7,137.5,28.7,137.5z"/>
	<path class="st1" d="M116.7,111.7H99.3v24.9h20.2l-1.5,11.3H87V68.7h30.6v11.4H99.2v20.4h17.5V111.7L116.7,111.7z"/>
	<path class="st1" d="M217.8,68.7H230v68.4h19.9l-1.1,10.9h-31.1L217.8,68.7L217.8,68.7z"/>
	<path class="st1" d="M315.8,89.7v37c0,15.2-6.4,22.4-19.9,22.4c-12.8,0-18.7-7.4-18.7-22.2V89.6c0-15.2,7.6-22.2,19.5-22.2
		C308.6,67.5,315.8,74.5,315.8,89.7z M289.6,88.5v39.9c0,6.6,2.4,9.7,6.8,9.7c4.7,0,6.9-2.9,6.9-9.9V88.4c0-6.3-1.9-9.7-6.9-9.7
		C292,78.6,289.6,81.9,289.6,88.5z"/>
	<path class="st1" d="M348.5,68.7h17.7c12.6,0,19,6.2,19,20.3v4.6c0,13.1-4.6,21.8-19.7,21.8h-4.8v32.7h-12.2V68.7z M360.8,105.3
		h3.3c7.7,0,9-4.4,9-12.2v-3.8c0-5.8-1.1-10.5-7.8-10.5h-4.5V105.3z"/>
</g>
</svg>
