<?xml version="1.0" encoding="utf-8"?>
<!-- Generator: Adobe Illustrator 22.1.0, SVG Export Plug-In . SVG Version: 6.00 Build 0)  -->
<svg version="1.1" id="logo__x2B__tagline" xmlns="http://www.w3.org/2000/svg" xmlns:xlink="http://www.w3.org/1999/xlink" x="0px"
	 y="0px" viewBox="0 0 841.9 595.3" style="enable-background:new 0 0 841.9 595.3;" xml:space="preserve">
<style type="text/css">
	.st0{fill:#45A041;}
</style>
<g>
	<path class="st0" d="M401.9,248.3l-1.7-4.6c0-0.1-0.1-0.2-0.1-0.3l-0.2-0.5l0,0c-0.6-1.1-1.5-1.7-2.8-1.7h-14.5
		c-0.9,0-1.6,0.3-2.2,0.8c-0.5,0.6-0.6,1.3-0.3,2.2l19.1,72.4c3.2-12.4,7.5-25.5,12.9-39.2L401.9,248.3z"/>
	<path class="st0" d="M415.5,288.1L415.5,288.1c-5.5,15-9.6,29.2-12.3,42.5l3.8,13.6c1.1,2.9,2.8,4.3,4.9,4.3h7.7
		c0.9,0,1.7-0.2,2.3-0.5c0.2-0.1,0.4-0.2,0.5-0.3c0.1,0,0.2-0.1,0.2-0.1c0.7-0.6,1.4-1.7,2-3.4l3.3-15.8
		c20.2-86.9,59.4-161.9,82.8-179.5C461.5,164.4,415.5,288.1,415.5,288.1z"/>
</g>
</svg>
